PathFileType	4	(X/Y/Z)	/Users/visionmauri/Downloads/Videos/OAW11-top_Sports2D/OAW11-top_Sports2D_px_person00.trc
DataRate	CameraRate	NumFrames	NumMarkers	Units	OrigDataRate	OrigDataStartFrame	OrigNumFrames
30.0	30.0	11	22	m	30.0	1624	2166
Frame#	Time	Hip			RHip			RKnee			RAnkle			RBigToe			RSmallToe			RHeel			LHip			LKnee			LAnkle			LBigToe			LSmallToe			LHeel			Neck			Head			Nose			RShoulder			RElbow			RWrist			LShoulder			LElbow			LWrist			
		X1	Y1	Z1	X2	Y2	Z2	X3	Y3	Z3	X4	Y4	Z4	X5	Y5	Z5	X6	Y6	Z6	X7	Y7	Z7	X8	Y8	Z8	X9	Y9	Z9	X10	Y10	Z10	X11	Y11	Z11	X12	Y12	Z12	X13	Y13	Z13	X14	Y14	Z14	X15	Y15	Z15	X16	Y16	Z16	X17	Y17	Z17	X18	Y18	Z18	X19	Y19	Z19	X20	Y20	Z20	X21	Y21	Z21	X22	Y22	Z22
1624	54.15833718244804	556.4679746516636	1249.0167756385742	0.0	627.4923419164807	1274.8488525305215	0.0	602.2099653090974	1460.5242322271286	0.0	585.8209446555564	1636.5555232769896	0.0	549.0754429657352	1690.8702470680842	0.0	600.8507176814591	1691.4425705149545	0.0	575.600119243239	1692.5302060523761	0.0	484.3386736059541	1271.4794056083315	0.0	462.8190108373535	1471.2147392311767	0.0	445.07644601620603	1687.8849666058738	0.0	464.8556730921766	1827.183225415261	0.0	400.7163046700879	1810.6534601377844	0.0	446.1652107160113	1756.0310381457944	0.0	564.4049492849206	877.0239023226576	0.0	571.2946914812256	758.5769172290081	0.0	583.0325030370359	826.8032552185457	0.0	674.1814048196998	955.9489542635081	0.0	737.9877500128697	1150.2558142506737	0.0	811.8477533063035	1297.7722992764254	0.0	443.14544796228876	931.8095332168963	0.0	390.36376492066853	1138.1094552351087	0.0	349.92651774145975	1300.4889125152442	0.0
1625	54.19168591224018	562.2783960054154	1237.7200986707576	0.0	631.433435295643	1264.1472300279702	0.0	604.885614862497	1455.8313152995015	0.0	585.9484930338753	1632.7547676443537	0.0	545.2843905319505	1700.430977881249	0.0	595.375196886004	1698.45037128203	0.0	574.6359104402779	1692.571343692338	0.0	489.8788333743997	1259.814419423432	0.0	468.45241138807637	1449.5988723727316	0.0	451.55380563628387	1661.5474303205865	0.0	467.71597127295416	1782.0089475628718	0.0	406.13357428278675	1770.395483471185	0.0	453.5102540672247	1733.7275740473344	0.0	570.6053064975086	872.5174270775093	0.0	578.5357911798312	760.1931326339055	0.0	552.798008273307	828.9994221007519	0.0	679.5059985445554	949.811810426103	0.0	745.3603442775126	1135.2394491893097	0.0	818.346914081444	1275.5491276829216	0.0	451.6613979788296	925.4645707369505	0.0	400.0076302992317	1126.427475641709	0.0	360.8156571333423	1288.7653608184312	0.0
1626	54.225034642032334	566.9539438287768	1226.1226007546663	0.0	634.3690874230639	1251.9600203381847	0.0	606.9513899389996	1448.3783271203595	0.0	586.20113899728	1630.3232248159723	0.0	547.1526200418543	1701.6085927595811	0.0	595.9748826518866	1701.8082202877663	0.0	576.1598057765207	1692.097112812261	0.0	494.1645760392345	1245.8224318007906	0.0	473.9364229004898	1428.6180402461373	0.0	457.8236934297979	1635.9064018410093	0.0	475.15974791465345	1744.0637090010946	0.0	411.94746695090083	1735.8229178091408	0.0	460.4152062184002	1708.7124114486762	0.0	576.201196842683	869.2691305826398	0.0	584.5355738724264	760.0472023859671	0.0	534.4170824221916	832.9701275788829	0.0	684.6808418546873	944.0406686942077	0.0	750.2440108851309	1119.7472652070282	0.0	822.7217272110714	1252.8985983229852	0.0	458.9127275276396	918.2185560934275	0.0	406.2358439790909	1113.5982497008624	0.0	368.883548678816	1275.215935057524	0.0
1627	54.25838337182448	570.442912649547	1215.5696741950787	0.0	637.4753717179798	1238.5924430791463	0.0	608.7473063204156	1440.3323374227828	0.0	586.7600403128247	1627.3620322836568	0.0	550.1409122385403	1699.7257350393697	0.0	599.0458962562487	1703.1357564046293	0.0	578.345439984669	1690.561687665327	0.0	497.08831139144394	1231.2191272411383	0.0	479.65912511256346	1407.7715934086002	0.0	465.142057138805	1603.9052275133765	0.0	485.35700735858666	1708.5688692352223	0.0	420.9537145848763	1700.2786099741234	0.0	467.98990134269616	1671.8021059332364	0.0	580.8007981638933	866.9642692388039	0.0	588.8523370378972	756.72847149333	0.0	535.9742098369055	833.4887568013622	0.0	688.8165753529884	938.1779531593165	0.0	752.6399016860308	1103.6484853941313	0.0	823.8205040259428	1230.7926015151256	0.0	464.11598261901713	912.1980149004582	0.0	410.8572110832834	1101.22118928361	0.0	375.99473308769797	1259.5010539286643	0.0
1628	54.29173210161663	572.4836418149034	1206.9784531386515	0.0	640.3184766795752	1224.7148913006843	0.0	610.4755202480118	1433.159032245397	0.0	587.232744905255	1624.6110909183183	0.0	551.8048468917134	1699.2753347586927	0.0	600.2860961081876	1704.2339925776198	0.0	579.943653999807	1687.5822451346341	0.0	498.9275110366073	1217.6887911757092	0.0	485.74222152687173	1390.2861697794563	0.0	472.42100167824043	1571.5903847888085	0.0	493.3790551566726	1664.7525623824336	0.0	433.2883047049519	1657.1760506162084	0.0	474.61749908596965	1631.108573767633	0.0	583.5770254611198	865.6596617802949	0.0	591.7510563176252	750.4092373507592	0.0	548.6440945517992	829.9932786937442	0.0	690.184905471205	932.1758893408555	0.0	753.3703490049547	1088.1928970707834	0.0	821.2130736886596	1209.3405417195413	0.0	467.9966282731637	908.4592047763953	0.0	414.67411279943286	1090.9282114786174	0.0	382.52518319455345	1244.2036594180356	0.0
1629	54.325080831408776	573.0406976320895	1199.912620961031	0.0	641.6446894216673	1213.0971928205308	0.0	611.6323127956157	1426.8126808913235	0.0	587.2561041392258	1623.4444181129925	0.0	553.6887434869324	1700.2127108494274	0.0	598.864655959972	1705.0072422058392	0.0	580.656484589754	1684.072286976646	0.0	500.3722922715829	1207.1771923938734	0.0	491.2325919514935	1378.8238327750767	0.0	477.96103602353935	1548.5698993220046	0.0	497.1578189939063	1610.181979524661	0.0	446.1595911300518	1608.3096516872963	0.0	479.15124990213997	1599.7312279005853	0.0	584.6578841421035	863.4950752885348	0.0	594.4463403586085	741.8438486957104	0.0	563.364511029948	824.4868462128316	0.0	688.3416626111295	926.3636573383276	0.0	753.5210235599409	1075.4146590021599	0.0	815.1883140967245	1188.2575527931026	0.0	471.2993568838107	906.1844332944721	0.0	417.86361541340676	1083.3787560858018	0.0	387.0200249301764	1232.0917219331354	0.0
1630	54.35842956120092	573.0740997167194	1194.1174006471185	0.0	641.6838403280366	1208.1826541626192	0.0	611.8447329751106	1422.2044887326074	0.0	586.8113065571763	1623.7332031235358	0.0	555.9073208554022	1701.6766476325695	0.0	595.3255516379475	1705.7358807686405	0.0	580.2828703741997	1680.4252842855133	0.0	502.4774978853144	1202.4306584648878	0.0	495.59089682876686	1371.2043114994135	0.0	483.22792619707326	1533.5621068522885	0.0	498.8322640566267	1552.1710090179204	0.0	457.29219972516023	1560.1459583628323	0.0	484.11442807555096	1579.3227384939041	0.0	584.7709474976768	858.5370671238031	0.0	596.8134124016626	735.0685812009276	0.0	575.0315183010424	818.12832441578	0.0	685.0796261199627	920.9890366517263	0.0	753.4403943839386	1066.3072048639194	0.0	805.8714034282173	1168.7198073723407	0.0	473.59411232242536	904.0593440312498	0.0	420.69052463775745	1078.053686612302	0.0	388.3643725867146	1224.148177817059	0.0
1631	54.391778290993074	573.6833475467317	1189.9444939947707	0.0	641.6915075034553	1210.6055686623695	0.0	611.5552958803826	1419.6059574675278	0.0	586.0000587821021	1624.740841474551	0.0	556.5402110303468	1702.8462436505667	0.0	590.6442762672066	1707.3697560641235	0.0	578.6174846065626	1676.7017211123623	0.0	505.65012360606494	1203.0207664542638	0.0	499.56760912185945	1363.080044960202	0.0	490.2449735113657	1518.8949483521674	0.0	501.2958732363901	1503.9703469261208	0.0	466.03119905465996	1520.1677206406102	0.0	491.34693103881114	1562.4655207187539	0.0	584.1869428751406	851.3936627501955	0.0	597.4848648427471	732.5493974815523	0.0	580.6024304712713	810.949517446793	0.0	682.4658910981358	916.0767283086963	0.0	752.2972454104954	1060.0211056738915	0.0	793.9829668524966	1152.7167762291324	0.0	474.44763847219986	901.1632389874104	0.0	422.9500967996008	1073.4354503453756	0.0	387.269439647532	1219.2139763880255	0.0
1632	54.42512702078522	574.5902941607966	1186.2070155439721	0.0	641.8789947474374	1213.7804510091044	0.0	611.3568182677781	1416.1348250300416	0.0	584.6155994734421	1625.3181590619995	0.0	555.5297154163342	1701.9341088204685	0.0	587.6898688410193	1709.1917632940858	0.0	576.2262405757579	1674.3583661124737	0.0	508.6508425514075	1203.260856415414	0.0	504.0368118389396	1352.5036125328897	0.0	497.99449773767117	1502.359015756182	0.0	505.2913670155821	1475.5098203728605	0.0	473.22985667021595	1493.4042303154424	0.0	498.9322448459107	1544.7062501122002	0.0	582.7126533947496	845.5258087564492	0.0	596.0054907765618	731.9381338793704	0.0	580.8372549600575	805.2914924898812	0.0	680.4464971022608	911.5292091502018	0.0	749.3537054260477	1054.3972416093106	0.0	781.750343092364	1140.3604507975676	0.0	473.9803487894708	897.7873538783832	0.0	424.09701328788395	1069.0578984254953	0.0	385.3797629231292	1215.9800714457192	0.0
1633	54.45847575057737	574.478640947714	1180.3848968716802	0.0	641.6398348455054	1209.0968842851016	0.0	611.3462109456873	1408.9491547757418	0.0	582.374149204446	1623.8819827106577	0.0	554.4374670898327	1698.305841344236	0.0	588.3932190596271	1709.584607882027	0.0	574.1511909963804	1673.1742602470981	0.0	509.85702268109566	1197.4859728374201	0.0	508.80609624967065	1341.1701059866589	0.0	504.55500331328454	1488.1745868881355	0.0	509.4785756857889	1465.031189461823	0.0	479.36944270001163	1479.8963347431509	0.0	504.7288857804692	1528.9192090919198	0.0	580.1118675451514	844.4582035402474	0.0	592.4649322283155	730.458228021347	0.0	579.1907073091769	804.4425714771847	0.0	677.7869699400194	907.4379125446062	0.0	744.9377741646558	1048.2024292445321	0.0	771.3384989244543	1130.4770324410058	0.0	472.51324454786214	895.0481611212647	0.0	423.8463698623133	1066.2730228654434	0.0	383.2532577835987	1213.9730947776454	0.0
1634	54.491824480369516	572.4681876524463	1172.142719296734	0.0	640.5820138288003	1196.0038763285293	0.0	611.0045977210509	1398.765722769917	0.0	580.1964019624947	1619.42724488722	0.0	553.8487924514138	1695.5996235535272	0.0	591.5566542943789	1708.9765542257423	0.0	572.9244655112672	1670.3381415203482	0.0	509.0493478830796	1186.8002293145155	0.0	512.8031781007153	1332.3082010898797	0.0	509.53571501104835	1480.4477249726983	0.0	512.5660669168974	1463.3108018298751	0.0	483.2476258258365	1475.820508997092	0.0	508.47462122738125	1519.418252089217	0.0	576.0992127685919	846.9229906087144	0.0	586.55649200486	728.2106623997641	0.0	578.6398861862396	806.9981597225229	0.0	674.3991830943447	904.1443898906153	0.0	739.7561089031789	1043.2165501780544	0.0	763.0019431238165	1123.5285067035497	0.0	470.29851048633566	893.080090462842	0.0	422.16788785853004	1064.8208041574708	0.0	380.24726641973035	1211.583995078569	0.0
